:SAMPLES-PER-SECOND 30
:FULLY-SPECIFIED
:DEGREES
75
root  18.9832 39.3279 2.41323 -20.5217 -78.7732 13.5945
RightUpLeg  14.9814 -14.6918 -17.174
RightLeg  6.0119 -0.0945205 1.30248
RightFoot  -8.57048 -0.268514 8.71728
RightToes  3.49245e-010 0 -3.6325e-017
Spine  -7.68591 -5.97587 -10.3535
Spine1  19.6809 -7.32138 3.87671
HEad  -5.80232 -1.77162 -4.67922
LeftShoulder1  -0.0560407 3.73507 -16.9075
LeftArm  -24.34 6.76909 -26.3882
LeftForeArm  16.6285 -16.892 -1.376
LeftHand  -0.0408151 4.67933 2.99834
RightShoulder  -0.182134 -4.20521 18.649
RightArm  -15.2067 -9.58826 23.0639
RightForeArm  21.1514 28.179 4.93756
RightHand  -0.0470651 3.61788 -0.849698
LeftUpLeg  4.53918 6.43769 1.25524
LeftLeg  12.3039 -7.95659 -1.07061
LeftFoot  -10.1243 0.0295814 3.01118
LeftToes  -5.36635e-011 -6.70219e-011 5.24975e-011
76
root  18.6117 39.2186 2.71886 -16.7072 -76.9244 8.95343
RightUpLeg  14.7696 -17.7168 -18.3025
RightLeg  11.1558 0.677853 1.01881
RightFoot  -9.02228 -0.27825 10.6243
RightToes  3.49245e-010 0 -3.6325e-017
Spine  -9.40846 -7.01657 -11.7146
Spine1  23.8851 -8.86715 4.63552
HEad  -6.66601 -0.781299 -4.65068
LeftShoulder1  -0.208716 4.28919 -20.075
LeftArm  -21.3391 6.76277 -27.1018
LeftForeArm  18.3746 -16.9921 -1.98814
LeftHand  -0.036182 4.6854 1.99574
RightShoulder  -0.258428 -4.42199 20.763
RightArm  -13.0047 -9.16082 25.6499
RightForeArm  22.3132 26.6867 4.55221
RightHand  -0.0334414 3.4174 -0.699066
LeftUpLeg  4.95595 6.10111 1.65113
LeftLeg  14.2624 -9.55061 -1.62895
LeftFoot  -11.7113 0.0815501 3.65714
LeftToes  -5.36635e-011 -6.70219e-011 5.24975e-011
77
root  18.1207 39.1707 3.05696 -10.686 -74.5483 2.21747
RightUpLeg  14.5126 -22.6588 -19.3003
RightLeg  17.0194 1.8621 0.476439
RightFoot  -7.70719 -0.52248 14.354
RightToes  3.49245e-010 0 -3.6325e-017
Spine  -12.4108 -8.4126 -12.1024
Spine1  29.4576 -10.6118 4.78401
HEad  -7.61726 -0.150935 -4.09417
LeftShoulder1  -0.349907 4.70256 -22.8295
LeftArm  -17.3088 6.50807 -28.2397
LeftForeArm  19.1069 -16.1906 -2.63207
LeftHand  -0.0287567 5.1159 0.903455
RightShoulder  -0.425677 -4.9248 23.0907
RightArm  -10.6948 -8.25026 28.4378
RightForeArm  22.8879 23.7399 3.79333
RightHand  -0.0103529 2.69741 -0.349301
LeftUpLeg  5.5206 5.35682 2.89434
LeftLeg  15.6721 -11.6316 -2.24266
LeftFoot  -13.1586 0.143254 4.01498
LeftToes  -5.36635e-011 -6.70219e-011 5.24975e-011
78
root  17.5069 39.2625 3.47955 -4.41908 -71.7689 -4.88406
RightUpLeg  14.3804 -27.4628 -19.9793
RightLeg  22.8448 0.640662 0.0374094
RightFoot  -3.41407 -1.03606 14.9586
RightToes  3.49245e-010 0 -3.6325e-017
Spine  -16.1086 -10.2363 -11.4015
Spine1  35.5332 -12.5463 4.35162
HEad  -8.47515 0.749287 -3.83082
LeftShoulder1  -0.481339 5.01949 -25.4804
LeftArm  -13.2078 6.89823 -29.4094
LeftForeArm  19.5939 -14.9409 -3.54011
LeftHand  -0.0316383 5.68416 0.0207502
RightShoulder  -0.501255 -5.10461 24.513
RightArm  -7.10801 -7.88888 32.0178
RightForeArm  21.9091 19.9616 2.57085
RightHand  0.130944 3.00993 1.59087
LeftUpLeg  6.85563 4.28941 4.76699
LeftLeg  15.8287 -13.7891 -2.64939
LeftFoot  -13.9976 0.194495 4.77279
LeftToes  -5.36635e-011 -6.70219e-011 5.24975e-011
79
root  17.1558 39.4645 3.90269 4.33476 -70.2505 -13.0414
RightUpLeg  10.2194 -31.4188 -17.5033
RightLeg  28.8716 -1.63643 -1.20137
RightFoot  2.90264 -1.22574 10.0146
RightToes  3.49245e-010 0 -3.6325e-017
Spine  -20.1396 -11.4092 -8.08319
Spine1  39.488 -13.4949 3.30067
HEad  -8.76947 1.49522 -3.70163
LeftShoulder1  -0.606872 5.29846 -27.6419
LeftArm  -9.68239 8.47266 -30.9533
LeftForeArm  21.6654 -14.2142 -4.54252
LeftHand  -0.0466307 6.47827 -1.11717
RightShoulder  -0.581971 -5.3067 25.5033
RightArm  -2.61439 -8.31997 35.6873
RightForeArm  18.6509 16.8461 1.9057
RightHand  0.038055 2.97961 0.303627
LeftUpLeg  6.53723 2.68025 7.05507
LeftLeg  15.2 -13.6178 -2.46243
LeftFoot  -14.1977 0.216182 5.24341
LeftToes  -5.36635e-011 -6.70219e-011 5.24975e-011
80
root  16.9731 39.6183 4.24409 14.6789 -70.5025 -21.6785
RightUpLeg  3.03129 -32.7922 -12.0764
RightLeg  33.0161 -1.89527 -1.54643
RightFoot  5.81105 -0.913661 6.2514
RightToes  3.49245e-010 0 -3.6325e-017
Spine  -24.4577 -11.1432 -2.50267
Spine1  41.7417 -12.6567 0.467881
HEad  -8.86905 2.44694 -3.45819
LeftShoulder1  -0.703336 5.49426 -29.1431
LeftArm  -7.16008 11.0053 -32.8549
LeftForeArm  24.5063 -13.9185 -5.26241
LeftHand  -0.0660197 7.20441 -1.59344
RightShoulder  -0.743464 -5.7134 27.0087
RightArm  0.702551 -9.34281 38.6277
RightForeArm  19.1044 14.6503 2.04164
RightHand  0.0918005 2.74281 1.09227
LeftUpLeg  4.84444 1.81101 9.20624
LeftLeg  15.0153 -11.8072 -1.9625
LeftFoot  -14.4908 0.226828 5.09677
LeftToes  -5.36635e-011 -6.70219e-011 5.24975e-011
81
root  17.0339 39.6204 4.42087 26.2273 -72.8523 -30.2324
RightUpLeg  -6.98142 -31.2335 -5.26712
RightLeg  35.2273 0.337269 -0.0054123
RightFoot  3.99082 -1.14433 8.68637
RightToes  3.49245e-010 0 -3.6325e-017
Spine  -26.7903 -9.45157 2.68211
Spine1  40.3784 -10.7771 -2.10373
HEad  -8.58488 3.51287 -3.54189
LeftShoulder1  -0.908108 5.94552 -30.9864
LeftArm  -5.616 13.9724 -34.4433
LeftForeArm  26.7193 -13.491 -5.77587
LeftHand  -0.0651819 6.71797 -2.23225
RightShoulder  -0.876038 -6.01739 28.2699
RightArm  3.38548 -11.1541 40.9732
RightForeArm  20.5488 13.494 2.58841
RightHand  0.134815 2.33189 1.85681
LeftUpLeg  1.37766 2.60581 10.3651
LeftLeg  16.1215 -8.99213 -1.60744
LeftFoot  -15.2059 0.248732 4.6499
LeftToes  -5.36635e-011 -6.70219e-011 5.24975e-011
82
root  16.95 39.5886 4.48108 33.856 -75.0993 -36.0438
RightUpLeg  -13.9212 -29.9468 -0.944902
RightLeg  34.7929 2.61665 1.69445
RightFoot  2.726 -1.29601 10.6326
RightToes  3.49245e-010 0 -3.6325e-017
Spine  -26.2112 -8.23772 3.92839
Spine1  38.1855 -9.67422 -2.27378
HEad  -9.08465 4.33374 -3.36913
LeftShoulder1  -1.13463 6.42101 -32.7372
LeftArm  -5.60787 16.6089 -36.1554
LeftForeArm  28.0069 -12.5092 -6.14238
LeftHand  -0.0562134 6.41337 -2.14055
RightShoulder  -1.01785 -6.34599 29.2623
RightArm  5.51565 -13.4269 43.0091
RightForeArm  21.7052 13.48 3.18302
RightHand  0.145435 1.03195 2.52579
LeftUpLeg  -0.132161 4.03778 10.4226
LeftLeg  16.5691 -7.30293 -1.291
LeftFoot  -15.7023 0.273993 4.71703
LeftToes  -5.36635e-011 -6.70219e-011 5.24975e-011
83
root  16.757 39.512 4.57726 37.2489 -77.4441 -39.0016
RightUpLeg  -17.846 -29.5295 1.12271
RightLeg  32.1335 4.39256 2.73018
RightFoot  1.04828 -1.26074 11.6313
RightToes  3.49245e-010 0 -3.6325e-017
Spine  -22.9701 -7.51557 3.96089
Spine1  34.3253 -8.56056 -2.63021
HEad  -9.0203 4.669 -2.80356
LeftShoulder1  -1.2144 6.55165 -33.6394
LeftArm  -6.61667 20.1821 -37.9742
LeftForeArm  28.0482 -11.7757 -6.12057
LeftHand  -0.0901771 7.43002 -2.55685
RightShoulder  -1.1416 -6.58139 30.5742
RightArm  8.56504 -15.7539 44.0475
RightForeArm  21.8238 13.3439 3.97218
RightHand  0.145753 1.27887 2.42735
LeftUpLeg  0.38362 5.21331 9.33936
LeftLeg  16.3712 -6.06141 -0.779952
LeftFoot  -16.2251 0.287145 4.44629
LeftToes  -5.36635e-011 -6.70219e-011 5.24975e-011
84
root  16.4946 39.4386 4.66576 37.3062 -79.473 -39.1254
RightUpLeg  -20.0647 -29.6871 2.35114
RightLeg  27.3264 5.41894 2.79325
RightFoot  -0.0954455 -1.15616 11.697
RightToes  3.49245e-010 0 -3.6325e-017
Spine  -19.422 -7.14438 2.91991
Spine1  31.0691 -7.91618 -2.2026
HEad  -9.4436 5.26469 -2.81375
LeftShoulder1  -1.28754 6.64721 -34.746
LeftArm  -7.34925 22.1941 -38.8988
LeftForeArm  28.0668 -9.93496 -6.35602
LeftHand  -0.128703 7.97194 -3.63119
RightShoulder  -1.24991 -6.81392 31.2454
RightArm  11.6896 -18.0832 44.9403
RightForeArm  22.2135 14.337 4.5023
RightHand  0.15477 0.831094 2.80927
LeftUpLeg  1.73648 5.99414 7.89469
LeftLeg  15.5137 -5.15629 -0.350995
LeftFoot  -16.5717 0.28701 4.10054
LeftToes  -5.36635e-011 -6.70219e-011 5.24975e-011
85
root  16.1354 39.3518 4.73982 33.413 -81.1208 -35.5429
RightUpLeg  -20.8776 -30.243 2.88634
RightLeg  20.9921 5.89349 2.26106
RightFoot  -1.23574 -1.04309 11.6636
RightToes  3.49245e-010 0 -3.6325e-017
Spine  -16.6046 -6.95449 1.32984
Spine1  28.9371 -7.51823 -1.64355
HEad  -10.0918 5.25663 -2.69333
LeftShoulder1  -1.26328 6.55414 -35.1822
LeftArm  -8.2857 23.0587 -40.0273
LeftForeArm  29.5534 -7.25456 -6.3138
LeftHand  -0.151262 7.9694 -4.46348
RightShoulder  -1.32997 -6.9557 32.0212
RightArm  14.3451 -19.7766 45.2365
RightForeArm  22.6259 14.9276 4.83669
RightHand  0.174636 0.97492 3.10393
LeftUpLeg  3.42135 6.37962 6.28261
LeftLeg  14.6174 -4.44981 -0.0410156
LeftFoot  -16.8747 0.302307 4.15036
LeftToes  -5.36635e-011 -6.70219e-011 5.24975e-011
